# xmcd
#
# Track frame offsets:
#       150
#       18145
#       39715
#       60170
#       73232
#       97382
#       114127
#       136587
#       151210
#       168607
#       185975
#
# Disc length: 2761 seconds
#
# Revision: 0
# Processed by: cddbd v1.4PL0 Copyright (c) Steve Scherf et al.
#
# Submitted via: MusicManager v5.3.1.0
#
DISCID=910ac70b
DTITLE=Runway - Runway
DYEAR=1995
DGENRE=country
TTITLE0=Running Too Long
TTITLE1=The Time
TTITLE2=Glad It's You
TTITLE3=Believe It
TTITLE4=Always
TTITLE5=Can't Decide
TTITLE6=Far Away
TTITLE7=One And The Same
TTITLE8=In My Heart
TTITLE9=Make You Cry
TTITLE10=Late Again
EXTD=
EXTT0=
EXTT1=
EXTT2=
EXTT3=
EXTT4=
EXTT5=
EXTT6=
EXTT7=
EXTT8=
EXTT9=
EXTT10=
PLAYORDER=
